<?xml version="1.0" encoding="utf-8"?>
<!-- Generator: Adobe Illustrator 27.5.0, SVG Export Plug-In . SVG Version: 6.00 Build 0)  -->
<svg version="1.1" id="Layer_1" xmlns="http://www.w3.org/2000/svg" xmlns:xlink="http://www.w3.org/1999/xlink" x="0px" y="0px"
	 viewBox="0 0 138 138" style="enable-background:new 0 0 138 138;" xml:space="preserve">
<style type="text/css">
	.st0{fill:#FFFFFF;}
	.st1{fill:#1D2026;}
</style>
<g>
	<circle class="st0" cx="69" cy="69" r="69"/>
	<g>
		<path class="st1" d="M23.4,82.7c6.5,0,10.3-1,10.3-6.3c0-4.7-4.6-5.7-9.1-6.4l-0.8-0.1l-0.4-0.1l-0.5-0.1c-3.7-0.6-4.4-1.1-4.4-2
			c0-0.7,0.7-1.8,3.9-1.8c3.4,0,4.8,0.9,4.8,2.6v0.2h5.9v-0.2c0-3.3-1.9-7.2-10.7-7.2c-8.2,0-9.9,3.5-9.9,6.5c0,4.2,3.8,5.6,9.9,6.4
			c0.3,0,0.6,0.1,0.9,0.1c2.3,0.3,4.3,0.6,4.3,2.2c0,1.4-2.2,1.7-4.5,1.7c-3.8,0-5.2-0.8-5.2-2.6v-0.2h-5.9l0,0.4v0.4
			c0,1.1,0.2,2.6,1.4,3.9C15.3,81.8,18.6,82.7,23.4,82.7z M41.5,82.7V72.4c0-2.9,0.7-6.1,5.7-6.1c5.4,0,5.2,3.8,5.2,5.5v10.8h5.7
			V72.1c0-3.1-0.2-10.6-9.2-10.6c-3.8,0-5.7,1.2-7.1,3.1h-0.3v-3.1h-5.8v21.3H41.5z M84,82.7L75,70.3l9-8.9h-8l-9.4,9.3V55.3H61
			v27.3h5.7v-4.1l4.1-4.1l6,8.3H84z"/>
		<path class="st1" d="M92,82.7v-9.6c0-2.9,1.3-6.2,5.6-6.2c1.8,0,3.3,0.3,3.8,0.5l0.9-5.4c-1-0.2-2.2-0.5-3.8-0.5
			c-3.7,0-5,1.1-6.1,3.1H92v-3.1h-5.8v21.3H92z"/>
		<path class="st1" d="M115.6,82.7c6.5,0,10.3-1,10.3-6.3c0-4.7-4.6-5.7-9.1-6.4l-0.8-0.1l-0.4-0.1l-0.5-0.1c-3.7-0.6-4.4-1.1-4.4-2
			c0-0.7,0.7-1.8,3.9-1.8c3.4,0,4.8,0.9,4.8,2.6v0.2h5.9v-0.2c0-3.3-1.9-7.2-10.7-7.2c-8.2,0-9.9,3.5-9.9,6.5c0,4.2,3.8,5.6,9.9,6.4
			c0.3,0,0.6,0.1,0.9,0.1c2.3,0.3,4.3,0.6,4.3,2.2c0,1.4-2.2,1.7-4.5,1.7c-3.8,0-5.2-0.8-5.2-2.6v-0.2h-5.9l0,0.4v0.4
			c0,1.1,0.2,2.6,1.4,3.9C107.5,81.8,110.8,82.7,115.6,82.7L115.6,82.7z"/>
	</g>
</g>
</svg>
